<?xml version="1.0" encoding="UTF-8" standalone="no"?>
<!-- Created with Inkscape (http://www.inkscape.org/) -->

<svg
   width="173.92706mm"
   height="146.40538mm"
   viewBox="0 0 173.92706 146.40538"
   version="1.1"
   id="svg1"
   xml:space="preserve"
   xmlns="http://www.w3.org/2000/svg"
   xmlns:svg="http://www.w3.org/2000/svg"><defs
     id="defs1" /><g
     id="layer1"
     transform="translate(-15.648745,-64.743419)"><path
       d="m 148.36527,65.942869 c -0.59972,0.670277 -1.16417,1.516944 -1.30528,1.869722 -0.10583,0.352778 -2.82222,2.786944 -6.0325,5.397503 -3.21027,2.61055 -7.40833,6.0325 -9.31333,7.58472 -5.04472,4.1275 -18.59139,14.99305 -20.67278,16.58055 -11.288882,8.713616 -12.911662,10.195276 -15.486942,14.075836 -2.43417,3.70416 -3.52778,6.985 -8.32556,25.0825 -0.59972,2.32833 -1.48166,5.50333 -1.905,7.05555 -0.42333,1.55223 -0.98777,3.59834 -1.23472,4.51556 -0.56444,2.08139 -0.77611,1.76389 -1.5875,-2.04611 -1.86972,-9.13695 -3.38666,-12.52361 -6.73805,-14.95778 -3.06917,-2.2225 -3.4925,-2.25778 -19.29695,-2.43417 -13.93472,-0.10583 -14.42861,-0.10583 -15.875,0.59973 -0.9525,0.45861 -1.76389,1.23472 -2.25778,2.11666 -0.81138,1.37584 -0.81138,1.65806 -0.81138,12.48834 v 11.07722 l -4.903616,0.21166 c -5.256389,0.17639 -6.208889,0.45862 -8.078611,2.32834 -1.975555,1.97555 -2.187222,3.38666 -2.187222,13.68778 0,10.12472 0.105833,10.75972 1.975555,12.52361 2.046111,1.905 3.069167,2.04611 15.345834,2.04611 h 11.25361 v 1.5875 1.5875 h -10.30111 c -10.265834,0.0353 -15.486945,0.3175 -17.991667,1.05833 -0.705555,0.21167 -2.081389,0.98778 -2.998611,1.72862 -5.432778,4.26861 -5.291667,12.87638 0.282222,17.07444 3.316111,2.54 -0.176389,2.36361 49.141946,2.36361 h 44.414722 l 2.08139,-0.74083 c 5.32694,-1.97556 7.97278,-7.23195 6.49111,-13.0175 -0.98778,-3.91584 -3.4925,-6.52639 -7.3025,-7.65528 -1.5875,-0.49389 -4.37444,-0.59972 -17.427222,-0.70556 -8.53722,-0.0705 -15.875,-0.21166 -16.29833,-0.28222 -0.67028,-0.17639 -0.81139,-0.42333 -0.81139,-1.55222 v -1.37583 l 6.10305,-0.24695 c 7.09084,-0.28222 9.10167,-0.59972 10.51278,-1.62278 2.64583,-1.86972 3.810002,-5.99722 2.61056,-9.13694 -0.9525,-2.43417 -0.91723,-2.82222 1.375832,-13.22917 0.49389,-2.15194 1.37583,-6.27944 1.97555,-9.17222 0.59973,-2.92806 1.48167,-7.05556 1.94028,-9.17222 0.45861,-2.15195 1.30528,-6.10306 1.905,-8.81945 0.56445,-2.71639 1.12889,-5.53861 1.27,-6.27944 0.35278,-2.29306 2.15195,-5.96195 3.81,-7.86695 1.09361,-1.19944 2.99861,-2.64583 5.96194,-4.40972 2.39889,-1.41111 4.83306,-2.92806 5.46806,-3.31611 0.59972,-0.38806 1.94028,-1.19945 2.92806,-1.76389 1.72861,-1.02306 3.63361,-2.18722 6.35,-3.88056 0.67027,-0.42333 2.57527,-1.5875 4.23333,-2.54 1.65805,-0.98777 4.86833,-2.92805 7.16139,-4.30388 2.25778,-1.375836 4.30389,-2.504726 4.48028,-2.504726 0.17638,0 0.49388,0.67028 0.70555,1.48167 0.21167,0.84667 0.56445,2.081386 0.74083,2.751666 0.21167,0.67027 0.74084,2.64583 1.19945,4.40972 0.91722,3.42194 2.50472,9.45444 4.09222,15.34583 4.05695,15.13417 5.11528,19.22639 6.17361,23.38917 0.45861,1.905 0.84667,3.52778 0.84667,3.56305 0,0.0706 -1.02306,0.84667 -2.25778,1.76389 -1.23472,0.91723 -2.36361,1.905 -2.46944,2.18723 -0.10584,0.3175 -0.21167,2.92805 -0.21167,5.82083 0,3.77472 0.10583,5.25639 0.42333,5.25639 0.21167,0 2.29306,-1.02306 4.58611,-2.29306 2.32834,-1.27 4.26862,-2.29305 4.37445,-2.29305 0.0705,0 0.14111,6.91444 0.14111,15.34583 0,14.64028 -0.0353,15.38111 -0.67028,16.01611 -0.67028,0.67028 -4.48028,3.21028 -4.79778,3.21028 -0.10583,0 -0.17638,-6.0325 -0.17638,-13.40555 V 166.6962 h -4.93889 -4.93889 v 3.52778 3.52778 h 1.02305 c 0.56445,0 1.48167,0.17639 2.01084,0.35277 0.9525,0.35278 0.9525,0.38806 0.74083,2.92806 -0.10583,1.41111 -0.42333,3.175 -0.70556,3.95111 -0.28222,0.77611 -1.02305,2.99861 -1.65805,4.93889 -2.46945,7.83167 -6.31472,16.61583 -8.96056,20.49639 -1.65805,2.43417 -3.06916,3.03389 17.78,-7.72583 13.51139,-6.94973 15.91028,-8.21973 18.52084,-9.73667 11.35944,-6.56167 12.87639,-18.23861 3.88055,-29.31584 l -2.43416,-2.96333 -0.28223,-4.19806 c -0.14111,-2.29305 -0.35277,-4.33916 -0.45861,-4.48027 -0.10583,-0.17639 -0.74083,-0.42334 -1.41111,-0.56445 -0.67028,-0.10583 -1.37583,-0.38805 -1.55222,-0.635 -0.3175,-0.38805 -1.12889,-4.55083 -2.89278,-15.02833 -0.35278,-2.2225 -0.91722,-5.25639 -1.19944,-6.70278 -0.28223,-1.44639 -0.77611,-4.23333 -1.05834,-6.17361 -0.3175,-1.94028 -0.81139,-4.72722 -1.09361,-6.17361 -0.28222,-1.44639 -0.81139,-4.55084 -1.19944,-6.87917 -1.23472,-7.231936 -1.41111,-8.360826 -2.15195,-12.523606 -0.38805,-2.2225 -0.9525,-5.3975 -1.19944,-7.02028 -0.52917,-3.175 -0.35278,-2.8575 -5.64445,-10.44222 -1.48166,-2.15194 -3.63361,-5.256389 -4.79777,-6.949722 -2.25778,-3.351389 -3.35139,-4.162778 -5.53861,-4.162778 -1.16417,0 -1.5875,0.211667 -2.46945,1.199445 z m -2.39889,14.111115 -0.24694,4.445 -1.79917,1.02305 c -3.45722,1.94028 -24.37694,12.73528 -24.69444,12.73528 -0.42334,0 4.48027,-4.30389 14.42861,-12.55889 3.70416,-3.06917 7.97278,-6.63222 9.525,-7.97278 1.51694,-1.30528 2.8575,-2.32833 2.92805,-2.25778 0.0706,0.0706 0,2.15195 -0.14111,4.58612 z M 54.984998,135.08731 c 1.51694,0.635 3.175,2.92805 3.66888,5.08 0.45862,2.11667 2.01084,11.35944 2.50473,15.06361 0.21166,1.55222 0.56444,3.98639 0.84666,5.3975 0.38806,2.11667 0.38806,2.64583 0,2.78694 -0.9525,0.35278 -3.28083,-1.19944 -5.50333,-3.77472 -1.23472,-1.44639 -2.92806,-3.10444 -3.73944,-3.66889 -1.41112,-1.02305 -1.55223,-1.02305 -5.64445,-0.9525 -3.38667,0.0353 -4.26861,-0.0706 -4.40972,-0.45861 -0.24695,-0.635 -0.28222,-19.26166 -0.0353,-19.685 0.3175,-0.52916 10.97139,-0.35278 12.31194,0.21167 z m 17.35666,0.38805 c 2.82222,1.83445 3.45722,3.81 6.77334,20.6375 0.56444,2.99862 1.16416,6.17362 1.27,7.05556 l 0.24694,1.5875 -5.85611,-0.10583 c -5.29167,-0.10584 -5.82083,-0.17639 -6.0325,-0.74084 -0.28222,-0.91722 -1.09361,-5.43277 -1.94028,-10.61861 -0.38805,-2.43416 -0.9525,-5.85611 -1.23472,-7.58472 -0.3175,-1.76389 -0.84667,-4.97417 -1.19945,-7.19667 l -0.635,-3.98639 3.81,0.14112 c 2.89278,0.10583 4.02167,0.3175 4.79778,0.81138 z m 25.50584,15.20473 c -2.15195,11.18305 -4.16278,20.39056 -4.93889,22.61306 -0.38806,1.09361 -0.52917,1.16416 -2.01084,1.16416 -1.55222,0 -1.5875,-0.0353 -1.34055,-0.98778 0.10583,-0.52916 0.59972,-1.905 1.05833,-3.06916 0.9525,-2.46945 4.90361,-14.78139 6.59695,-20.53167 0.635,-2.15195 1.19944,-3.73945 1.27,-3.4925 0.0706,0.24694 -0.24695,2.18722 -0.635,4.30389 z m -56.12695,12.31194 c 1.02306,0.52917 2.2225,2.68112 3.35139,5.99723 0.3175,0.9525 1.19944,2.99861 1.905,4.51555 0.74083,1.51695 1.27,2.82222 1.16417,2.89278 -0.0705,0.10583 -4.58611,0.17639 -9.98361,0.17639 h -9.807227 v -6.63222 c 0,-4.69195 0.141111,-6.77334 0.423333,-7.05556 0.670278,-0.67028 11.641664,-0.56445 12.946944,0.10583 z m 30.26833,32.45556 c 1.83445,0.77611 2.50473,1.48167 2.96334,3.06917 0.45861,1.79916 -0.0705,3.4925 -1.48167,4.69194 l -1.09361,0.88195 H 48.211658 24.046382 l -1.375833,-1.37584 c -1.164167,-1.16416 -1.375833,-1.5875 -1.375833,-2.8575 0,-2.54 1.375833,-4.09222 4.056944,-4.69194 0.388056,-0.10584 10.759718,-0.17639 23.036388,-0.21167 19.33222,-0.0353 22.50722,0.0353 23.60083,0.49389 z"
       id="path1-6"
       style="fill:#ffb01f;fill-opacity:1;stroke:none;stroke-width:0.0352778" /></g></svg>
